<svg id="svg3960" xmlns="http://www.w3.org/2000/svg" viewBox="0 0 36 36"><path class="cls-1" d="M23.14,8.75h-.92V8.59c.25,0,.41,0,.3-.27s.56-.31.67-.24.07.5-.06.67ZM21.89,9H23c-.12.19-.47.82-.69.82A2.27,2.27,0,0,1,21.89,9ZM25.5,7.64a.66.66,0,0,1-.18.06c-.35.49-.14.44-.76.85a4.58,4.58,0,0,0,.22,1.65.06.06,0,0,1,0,.05l0,0-.49.11a3.18,3.18,0,0,1,0,.84,4.36,4.36,0,0,1-1.72,1.81c-.43.08-.91-.3-1.67-.63-.21-.09-.9-.55-1.27-.67s-.61.64-.23.83c.18.09.45.22.54.44.26.68,0,3.29-.58,3.82-.26,0-.47-.24-.66-.18s-.12,1.22,0,1.4c2.09,2.15,1.84,3.74,2.72,4.92.4,0,.14.43.45.93a1.9,1.9,0,0,1-.07.86v.65l-.07.2v.57c-.06.28-.13.65-.19.9-.12.54.35,1,.07,1.48,0,.32,0,.25-.19.51a10.36,10.36,0,0,0,0,1.9,5.68,5.68,0,0,0,1.24,1.44c.56.25,1.39.2,1.12,1.08-1.64.5-2.69-.28-3.56-.3l0,.15A3.72,3.72,0,0,1,19,33.21a13.61,13.61,0,0,1,.24-1.5l.19-.3a19.14,19.14,0,0,0-.08-2c-.35-.26-.42-1-.42-1.47a5,5,0,0,1-.12-1.16,2.14,2.14,0,0,1-.05-.76c.05-.17.25-.25.3-.39v-.49c.09-.51.06-.75-.24-1.05-.77,0-.87,0-1.29-.61-.13-.2-1.2-1.9-1.31-1.94-.89-.39-.72-.24-1.11-.93a.91.91,0,0,0-.46.39,15,15,0,0,0-1,2.57c-.09.3,0,.64-.13.89s-.42.24-.49.36c-.31.56-.08.52-.67.92a2.69,2.69,0,0,0-.19.51l-.13.19c-.1.22.11.61.07.74a9.74,9.74,0,0,1-.38,1c-.27.65-.24,1.51-.51,1.91-.14.2-.47,0-.73.17,0,.14-.42,1.06-.5,1.32v1.47c.08.25.29.48.22.8s-1.23.33-1.86.24c-.42-.06-.55-.37-.54-.73s.87-3.18.81-3.37c-.65-.73.17-1.49.42-2.17.12-.33,0-.8.18-1.11l.69-1.25c.42-.4.23-.41.46-.77s.43-.51.3-1c-.28-.95.32-2.29.36-3.28-.11-.11-.47-.08-.51-.38a2.84,2.84,0,0,1,.43-1.81c.09,0,.19,0,.27-.05,0-.46-.46-3-.11-3.16s.71-.12.8-.17-.08-.34-.17-.36L11,14.39c-.77-.18-.06-3.2,0-3.21.21-.28,1.19.1,1.31-.38.33-.42-.25-2,.86-4,.38-.67,1.1-1.34,1.94-1.06.28.1.11.5.61.07a1.79,1.79,0,0,0-.18-.67c-.82-2.46,2-3.79,3.92-2.39a2,2,0,0,1,.51.26c.11.56.66,1.55.11,2.2a2,2,0,0,0-.67.3,2,2,0,0,0,.07.57c0,.12.11.17-.07.24,0,0,0,.08,0,.11a2.31,2.31,0,0,0,1.25-.21h.36V5.76h.17V5.4h.17V6h.45v.2h6.74v.35h.3V5.29H29v1h.57v.59h1.78V6.75h.3v.08h.84v.5h-.84V7.4h-.3V7.22H29.6V7.4h-.79V7.28h-.34v.36Z"/></svg>