<svg id="svg3960" xmlns="http://www.w3.org/2000/svg" viewBox="0 0 36 36"><title>GAMES</title><path d="M27.69,4l-.07-.55.07,0a1.4,1.4,0,0,1,.16.23c.13.31.26.57.65.29a.2.2,0,0,1,.18,0c.62.41,1.32,0,1.94.19a2.11,2.11,0,0,1,1.14.74c.19.32,0,.85,0,1.29a3.23,3.23,0,0,0-.06.54,29.73,29.73,0,0,1,.06,6.56l-.75.07.22.67c-.17.28-.43.51-.41.71a3.18,3.18,0,0,0,.41.91,2.35,2.35,0,0,1,.15.34c.08.26.14.52.2.79a.83.83,0,0,1,0,.26c-.07.73-.14,1.46-.22,2.23l-.35.06,0,.14.82.14V30.8c-.91-.33-1.83-.93-2.88-.49l0,.14.84.1v.08L28.46,31a1.21,1.21,0,0,1-.47.05l-2.71-.44c-.1,0-.26-.06-.31,0-.48.49-1.16.16-1.69.4a3.41,3.41,0,0,1-.48.13l-.1-.41c-.13.63-.47.82-1.2.59l.62-.15,0-.19-2.36.12c-.15.39-.49.43-.83.4a2.3,2.3,0,0,1-.58-.21v-.13l-.27.24a2.57,2.57,0,0,0-.72-.29c-.32,0-.72-.19-.9.32,0,.11-.33.13-.51.19l-.55-.87a4.24,4.24,0,0,0-1.52-.14c-.53.17-.62-.17-.87-.48l-.22.48-.35-.41-.11.5c-.16,0-.38-.49-.53-.1l-.58,0c-.11,0-.25.05-.32,0-.48-.39-.91-.22-1.34.09l-.08,0-.24-.63L9,30.56l-.31-.24-.06.16-3.06.14c-.12-.39-.3,0-.52.16,0-.61-.45-.5-.82-.61a12.86,12.86,0,0,0,.1-4.23A4,4,0,0,1,4.36,25c0-.11.1-.31.15-.31.48,0,.39-.36.4-.65,0-.68.06-1.36.09-2,0-.25,0-.42-.31-.48a.46.46,0,0,1-.28-.34c0-1-.06-2-.06-3,0-.09.14-.17.27-.32l-.12-.26.46.14A.39.39,0,0,0,5,17.63a1.81,1.81,0,0,0-.3-1.27c-.22-.32-.11-.86-.13-1.31a3.75,3.75,0,0,0,0-.55A28.68,28.68,0,0,1,4.33,7c0-.45.06-.91.09-1.4L4,5.66V4.15h.1l0,.74h.13L4.47,4a3.35,3.35,0,0,0,1,.19,3.65,3.65,0,0,0,.95-.38A1.43,1.43,0,0,0,7.6,4a3.24,3.24,0,0,1,.65,0l1.84,0c.07,0,.15,0,.22,0a2.93,2.93,0,0,0,.8-.07,2,2,0,0,0,1.44.39c.5,0,1,.05,1.5.06.09,0,.18-.08.27-.13l.37-.22.68-.46s.1-.12.13-.11c.5.17.95-.25,1.48-.08a3.45,3.45,0,0,0,1.2,0s.07,0,.08,0c.69.35,1.57,0,2.19.61a6.29,6.29,0,0,1,.59.77c1.15,0,1.46-.12,1.22-1A30.24,30.24,0,0,1,27.69,4ZM18.48,20.53h.08c.06.17.11.34.18.51a1.51,1.51,0,0,0,.24.44c.11.12.31.16.42.28.59.67,1.16,1.35,1.75,2s1,1,1.41,1.54a3,3,0,0,0,1.92,1.19,12,12,0,0,0,2,.17.83.83,0,0,0,.6-.33A10.37,10.37,0,0,0,28.65,22a.92.92,0,0,0-.53-1.11,10.19,10.19,0,0,1-1-.65,2.33,2.33,0,0,0-1.31-.6c-.12,0-.26-.16-.36-.27s-.18-.35-.32-.44c-4.26-2.77-8.24-6-12.74-8.37a.54.54,0,0,1-.13-.14,2.83,2.83,0,0,0-.4-.47,16.71,16.71,0,0,1-1.54-1.11,2.44,2.44,0,0,0-3.1.25l.33.38q3,3.24,6.07,6.46a3.9,3.9,0,0,0,.72.47,1,1,0,0,1,.28.23,4.77,4.77,0,0,0,.32.57c1,1.1,2,2.2,3,3.29.13.14.28.27.5.49ZM10,26.94c.2-.2.37-.34.49,0a.13.13,0,0,0,.11.05,6.35,6.35,0,0,0,.85-.15c.71-.21,1.42-.45,2.12-.67L15,25.74,9.39,20.34c-.28.6-.52,1.11-.75,1.63-.34.8-.68,1.6-1,2.4a.76.76,0,0,0,.3,1C8.65,25.88,9.32,26.41,10,26.94ZM25.17,12.88l.1-.06a1,1,0,0,0,.17.31,6.72,6.72,0,0,0,.55.41,1.55,1.55,0,0,0,.21-.41c.16-1,.31-1.9.46-2.86a2.75,2.75,0,0,0,0-.4l-.23.07,0-.07.33-.23c-.33-.25-.64-.45-.91-.68a1.64,1.64,0,0,0-1.68-.3c-.68.21-1.37.39-2.06.57l-1.53.4,4.7,3.61.08-.1Z"/></svg>