<svg id="svg3960" xmlns="http://www.w3.org/2000/svg" viewBox="0 0 36 36"><title>GAMES</title><path d="M17.85,3.14a14.46,14.46,0,0,0-8.41,2.8l2.8,3.2A10.59,10.59,0,0,1,20,7.55a10.85,10.85,0,0,1,3.87,1.6l2.8-3.2A15,15,0,0,0,17.85,3.14Z"/><path d="M32.54,15.16a14.65,14.65,0,0,0-4-7.48l-2.8,3.2a11.22,11.22,0,0,1,2.8,7.88,10.55,10.55,0,0,1-1.34,4.41L21.45,17.7l-2.14-4.81v8.68l5.07,4.94a10.37,10.37,0,0,1-9.21,1.74,9.43,9.43,0,0,1-3.47-1.74l5.07-4.81V12.89L14.64,17.7,8.9,23.3a10.91,10.91,0,0,1-.13-10.15,7.78,7.78,0,0,1,1.47-2l-2.8-3.2A14.52,14.52,0,0,0,3.29,18.36,14.5,14.5,0,0,0,8.37,29.45a15.34,15.34,0,0,0,10.95,3.61,14.69,14.69,0,0,0,10.82-6A16.44,16.44,0,0,0,32.54,15.16Z"/></svg>