<?xml version="1.0" encoding="utf-8"?>
<!-- Generator: Adobe Illustrator 21.1.0, SVG Export Plug-In . SVG Version: 6.00 Build 0)  -->
<svg version="1.1" id="Calque_1" xmlns="http://www.w3.org/2000/svg" xmlns:xlink="http://www.w3.org/1999/xlink" x="0px" y="0px"
	 viewBox="13 26 82 54" xml:space="preserve">
<polygon class="st0" points="42.7,38.1 42.7,64.4 53.2,64.4 53.2,38.1 49,38.1 49,60.8 46.9,60.8 46.9,38 "/>
<path class="st0" d="M28.9,37.8v12h-0.8v3.8h0.8v10.9h3.9V53.6l6.6,0.1V37.9L28.9,37.8z M35.2,49.8l-2,0v-8.7l2,0V49.8z"/>
<path class="st0" d="M67.5,49.2V38.1l-10.4,0v10.8h-0.8V52h0.8v12.4h10.4V50.8h-0.9v-1.5L67.5,49.2z M63.4,61.3h-2.2v-8.9h2.2V61.3z
	 M63.2,48.6l-2,0v-7.9l2,0V48.6z"/>
<polygon class="st0" points="70.1,38.1 70.1,64.4 81.1,64.4 81.1,48.9 76,48.9 76,53.3 76.9,53.3 76.9,60.8 74.3,60.8 74.3,41.2 
	76.9,41.2 76.9,43.7 81.1,43.7 81.1,38.1 "/>
<path class="st0" d="M69.1,72.8h19.4v-7.7h4v-4.3h-4V41.1h4v-4.3h-4v-6.9H19.5v6.9h-3.9v4.3h3.9v19.7h-3.9v4.3h3.9v7.7h20v-3h-16
	V32.9h61.1v36.9H69.1V72.8z"/>
<rect x="57.6" y="66.7" class="st0" width="1.7" height="10.2"/>
<polygon class="st0" points="61.6,75.2 61.6,66.7 60,66.7 60,75.2 60,76.9 61.6,76.9 62.9,76.9 62.9,75.2 "/>
<polygon class="st0" points="66.9,68.4 66.9,66.7 65.1,66.7 63.4,66.7 63.4,68.4 63.4,70.6 63.1,70.6 63.1,72.3 63.4,72.3 
	63.4,75.2 63.4,76.9 65.1,76.9 66.9,76.9 66.9,75.2 65.1,75.2 65.1,72.3 66.9,72.3 66.9,70.6 65.1,70.6 65.1,68.4 "/>
<path class="st0" d="M48.3,66.7v3.7v2.9v3.7h4.1v-3.7v-2.9v-3.7H48.3z M50.8,75.5l-0.8,0v-5.1l0,0v-2.2l0.8,0v5.1l0,0V75.5z"/>
<path class="st0" d="M57.2,71v-4.3l-4,0v4.2h-0.3v1.2h0.3v4.8h4v-5.3h-0.3V71L57.2,71z M55.6,75.7h-0.9v-3.5h0.9V75.7z M55.5,70.8
	l-0.8,0v-3.1h0.8V70.8z"/>
<polygon class="st0" points="46.1,66.7 44.9,72 43.6,66.7 42.2,66.7 42.2,76.9 43.6,76.9 43.6,72.7 44.9,76.4 46.1,72.6 46.1,76.9 
	47.5,76.9 47.5,66.7 "/>
</svg>
