<svg id="svg3960" xmlns="http://www.w3.org/2000/svg" viewBox="0 0 63.04 36"><polygon points="21.95 8.39 21.95 28.53 29.98 28.53 29.98 8.39 26.76 8.38 26.76 25.75 25.19 25.73 25.19 8.36 21.95 8.39"/><path d="M11.43,8.15v9.16h-.62v2.91h.62v8.3h3v-8.3l5,.09V8.24Zm4.8,9.24-1.56,0V10.68l1.56,0Z"/><path d="M40.89,16.93V8.39H33v8.26h-.64V19H33v9.5h7.94V18.07h-.65V16.93ZM37.82,26.1h-1.7V19.31h1.7Zm-.17-9.65H36.12v-6h1.53Z"/><polygon points="42.88 8.39 42.88 28.53 51.28 28.53 51.28 16.69 47.41 16.69 47.41 20.03 48.06 20.03 48.06 25.71 46.09 25.71 46.09 10.82 48.06 10.82 48.06 12.68 51.28 12.68 51.28 8.39 42.88 8.39"/><path d="M60.39,10.72V7.43H57.34V2.18H4.6V7.43h-3v3.29h3v15h-3v3.29h3v5.87H57.34V29.05h3.05V25.76H57.34v-15Zm-6.1,21.9H7.64V4.48H54.3Z"/></svg>