<svg xmlns="http://www.w3.org/2000/svg"
	  viewBox="0 -100 981 1000">
>
 <g>
  <g id="svg_1">
   <path id="svg_2" d="m594.63,436.983c4.433,4.434 17.731,4.434 17.731,0c0,0 4.434,-8.866 8.866,-13.3c8.866,-8.865 8.866,-13.299 4.433,-13.299c-8.865,-4.433 -35.465,26.599 -31.03,26.599z"/>
   <path id="svg_3" d="m665.559,459.149c-4.435,-4.435 -4.435,0 -8.867,13.298c0,8.867 0,8.867 0,8.867c4.432,-4.433 13.299,-22.165 8.867,-22.165z"/>
   <path id="svg_4" d="m665.559,335.022c-4.435,0 -8.867,0 -13.3,4.434s-13.299,4.434 -17.732,8.866c-17.731,4.433 -31.031,13.299 -31.031,22.165c0,4.434 0,8.866 -4.433,13.299c-8.866,8.867 -4.433,8.867 17.732,17.732c8.865,4.433 17.731,4.433 17.731,4.433c4.434,0 22.165,-8.865 22.165,-13.298c0,0 -13.299,-4.434 -22.165,-8.867c-13.299,-4.433 -22.165,-8.865 -22.165,-13.299c0,-4.433 22.165,-13.299 39.897,-17.732c13.301,-8.865 22.166,-13.299 13.301,-17.733z"/>
   <path id="svg_5" d="m563.598,410.385c-8.866,8.866 -8.866,13.299 -4.433,13.299c13.299,4.434 17.732,0 26.598,-8.865l13.3,-13.3l-8.866,-4.433c-8.867,0 -8.867,0 -26.599,13.299z"/>
   <path id="svg_6" d="m466.07,335.022c0,0 4.434,4.434 8.866,13.3c13.3,13.299 22.166,17.732 22.166,8.866c0.001,-4.433 -26.598,-22.166 -31.032,-22.166z"/>
   <path id="svg_7" d="m510.401,259.661c-17.732,0 -22.165,0 -35.465,8.866c-8.866,4.434 -17.731,13.3 -17.731,13.3s4.433,8.865 8.865,17.731l8.866,13.299l48.765,0c26.598,0 48.763,-4.433 48.763,-4.433s-13.299,-39.897 -13.299,-44.33c0,0.001 -26.599,-4.433 -48.764,-4.433z"/>
   <path id="svg_8" d="m585.763,299.559c4.434,8.866 8.867,13.299 17.732,13.299c22.165,8.867 26.599,4.434 8.866,-13.299c-17.731,-17.732 -35.464,-22.165 -26.598,0z"/>
   <path id="svg_9" d="m439.473,326.157c-8.866,0 -4.433,0 4.433,8.865c17.732,13.3 22.165,22.166 26.599,44.331l0,17.732l13.299,4.433c22.166,8.866 22.166,8.866 13.3,-4.433c-4.434,-4.433 -13.3,-17.732 -17.732,-26.599c-13.302,-22.164 -31.033,-44.329 -39.899,-44.329z"/>
   <path id="svg_10" d="m501.535,321.725l-17.732,0l13.3,13.298l8.866,13.3l13.298,-8.866c13.3,-8.866 31.032,-13.299 57.631,-13.299c13.299,0 17.732,-4.433 17.732,-4.433s-79.796,-4.434 -93.095,0z"/>
   <path id="svg_11" d="m244.419,299.559c0,0 0,4.434 0,8.866c0,8.866 4.433,13.3 8.866,4.433c4.433,-4.433 4.433,0 8.865,0c4.434,4.434 8.867,4.434 8.867,0c0,-4.433 0,-4.433 0,-4.433c-4.434,8.866 -17.732,0 -17.732,-4.433c0,-4.434 4.433,-4.434 13.299,4.433c4.434,4.433 8.866,8.866 8.866,13.3c0,4.433 0,8.865 0,8.865c0,4.433 0,0 4.433,-4.433c0,-8.866 0,-8.866 -4.433,-13.3c-4.433,-4.433 -8.866,-17.731 -4.433,-26.598c4.433,-4.433 0,-4.433 -4.434,-8.866c-17.732,-8.866 -8.866,-17.732 17.731,-22.165c8.867,0 17.732,-4.433 17.732,-4.433c0,-4.434 -22.165,-8.867 -26.598,-4.434c0,0 -4.433,0 -13.3,0c-8.865,0 -8.865,0 -13.299,8.866c-4.43,13.3 -8.864,44.332 -4.43,44.332z"/>
   <path id="svg_12" d="m1773.818,459.149c17.732,4.433 75.362,4.433 93.094,0l8.866,-4.435l0,-57.629c0,-31.031 0,-57.63 0,-62.063c0,-4.433 -4.433,0 -8.866,4.434c-4.433,4.434 -13.299,8.866 -22.165,8.866c-35.464,8.866 -66.496,0 -79.794,-31.031c-22.166,-35.464 4.433,-79.795 48.763,-79.795c17.732,0 39.897,8.866 48.764,13.3l8.866,4.433l0,-57.63c0,-44.331 0,-62.063 -4.434,-62.063c0,0 -22.164,-4.434 -39.897,-4.434c-44.329,0 -62.062,4.434 -93.093,17.732c-53.197,26.599 -84.229,79.796 -84.229,141.857c0,31.032 4.434,53.197 22.165,84.229c17.733,39.898 62.064,70.93 101.96,84.229z"/>
   <path id="svg_13" d="m1432.475,459.149c39.897,8.865 84.229,4.433 119.692,-17.732c124.125,-70.93 106.394,-252.685 -26.599,-301.447c-17.732,-8.867 -31.031,-8.867 -53.196,-8.867c-17.732,0 -35.465,0 -44.33,4.434c-93.094,26.599 -146.291,124.125 -110.826,217.219c17.732,53.195 62.062,93.094 115.259,106.393zm-17.733,-186.188c13.3,-31.032 57.629,-44.33 84.228,-22.165c22.166,17.731 22.166,22.165 22.166,48.763c0,17.732 0,22.166 -8.866,35.464c0,0 -8.866,8.867 -17.732,13.3c-48.765,22.164 -101.961,-26.598 -79.796,-75.362z"/>
   <path id="svg_14" d="m399.575,441.417c4.434,4.433 22.165,4.433 22.165,0c0,0 0,-8.867 -4.433,-17.733l-4.434,-13.299l-13.299,13.299c-8.865,13.299 -8.865,13.299 0.001,17.733z"/>
   <polygon id="svg_15" points="2500.837890625,219.7640380859375 2500.837890625,339.4560546875 2500.837890625,454.7149658203125 2558.468017578125,454.7149658203125 2611.6640625,454.7149658203125 2611.6640625,339.4560546875 2611.6640625,219.7640380859375 2638.262939453125,219.7640380859375 2669.2939453125,219.7640380859375 2669.2939453125,179.866943359375 2669.2939453125,139.969970703125 2558.468017578125,139.969970703125 2447.64208984375,139.969970703125 2447.64208984375,179.866943359375 2447.64208984375,219.7640380859375 2474.239013671875,219.7640380859375 "/>
   <path id="svg_16" d="m328.646,335.022c-8.866,0 -8.866,-4.433 -4.433,-13.298c0,-4.434 4.433,-13.3 4.433,-17.732c4.433,-4.434 4.433,-4.434 0,-4.434c0,0 -4.433,4.434 -8.866,8.866c-4.433,13.3 -13.299,13.3 -22.165,-4.433c-8.866,-8.866 -8.866,-8.866 -8.866,-4.434c0,4.434 0,13.299 4.434,17.732c4.433,4.434 4.433,8.866 0,13.299c-4.434,13.3 -8.867,13.3 -22.165,4.433c-17.732,-8.865 -17.732,-8.865 -17.732,0c0,8.867 13.299,22.166 26.598,22.166c26.599,4.433 31.032,4.433 39.897,-4.434c4.434,-4.433 8.866,-4.433 17.732,-4.433s13.299,0 22.166,-8.866c17.731,-13.299 31.03,-17.731 48.763,-17.731c8.866,0 17.731,4.433 22.165,4.433s0,-4.433 -4.434,-13.3c-17.731,-13.299 -31.03,-17.731 -44.33,-17.731c-4.433,0 0,0 4.434,4.433c17.731,4.434 17.731,8.866 4.433,8.866c-17.732,-4.433 -39.897,-4.433 -39.897,4.433c4.431,8.868 -8.867,26.599 -22.167,22.165z"/>
   <path id="svg_17" d="m683.291,476.881c4.433,13.299 4.433,13.299 13.298,0c8.866,-13.299 8.866,-17.731 -4.433,-17.731c-8.865,4.432 -13.3,4.432 -8.865,17.731z"/>
   <path id="svg_18" d="m705.455,445.85c0,-4.433 0,-8.866 -4.433,-13.3c-4.434,-4.433 -4.434,-4.433 -8.866,4.434c-4.433,4.434 -8.866,8.866 -8.866,13.299s4.434,4.433 8.866,4.433c8.866,-0.001 13.299,-4.434 13.299,-8.866z"/>
   <path id="svg_19" d="m669.991,445.85c0,4.433 0,4.433 4.433,4.433s17.732,-17.732 13.3,-22.165c-4.433,-0.001 -17.733,8.865 -17.733,17.732z"/>
   <path id="svg_20" d="m399.575,286.26l4.434,-4.433c0,0 0,-4.434 -4.434,-4.434c0,0.001 0,0.001 0,8.867l0,0z"/>
   <path id="svg_21" d="m665.559,481.314c-4.435,4.433 -4.435,8.865 -4.435,8.865c0,4.433 17.732,4.433 17.732,0c0,0 0,-8.865 -4.433,-13.299l-4.433,-8.866l-4.431,13.3z"/>
   <path id="svg_22" d="m1494.537,716.266l-57.63,0l-57.629,0l0,-17.732l0,-17.732l48.764,0l48.763,0l0,-39.897l0,-39.896l-48.763,0l-48.764,0l0,-17.732l0,-17.732l57.629,0c31.031,0 57.63,0 62.063,-4.434c4.434,0 4.434,-13.299 4.434,-44.33l0,-39.897l-110.826,0l-110.826,0l0,159.589l0,159.59l115.259,0l115.26,0l0,-39.896l-17.734,-39.901z"/>
   <path id="svg_23" d="m1964.439,609.872l0,39.897l0,39.897l22.166,0c26.598,0 31.031,4.434 13.299,17.731c-22.166,17.732 -53.196,13.3 -75.361,-4.433c-17.732,-17.732 -22.166,-35.464 -22.166,-57.629c0,-44.33 26.599,-70.929 70.929,-70.929c22.165,0 31.031,4.433 48.764,17.731c4.433,4.433 8.866,4.433 39.897,-31.031c17.732,-17.732 35.464,-35.465 35.464,-35.465c0,-4.433 -31.03,-26.598 -48.763,-35.464c-35.465,-17.732 -93.095,-26.598 -128.56,-13.299c-57.629,17.731 -101.96,62.063 -115.258,115.259c-8.867,22.165 -8.867,62.063 0,88.661c17.731,57.63 62.062,101.96 115.258,115.259c22.167,4.434 66.497,4.434 88.661,0c39.898,-8.865 75.362,-35.464 93.094,-70.929c13.3,-26.598 17.732,-48.763 17.732,-84.228l0,-31.031l-75.361,0l-79.795,0l0,0.003z"/>
   <path id="svg_24" d="m1716.189,476.881l-53.196,0l-53.197,0l-53.196,155.156c-31.031,84.229 -53.197,159.59 -53.197,159.59l0,0c0,0 22.166,4.433 53.197,4.433l53.196,0l4.433,-13.298c0,-4.435 4.434,-17.732 4.434,-22.166l0,-13.299l44.33,0l44.33,0l4.434,22.165l4.434,22.165l53.196,0c31.03,0 53.196,0 53.196,0s-22.166,-70.929 -53.196,-159.59l-53.198,-155.156zm-53.196,190.621c-13.3,0 -17.732,0 -17.732,-4.434c0,-4.433 17.732,-75.361 17.732,-79.794c0,0 17.731,75.361 17.731,79.794c0.001,4.434 -4.432,4.434 -17.731,4.434z"/>
   <path id="svg_25" d="m1246.287,716.266l-57.63,0l-57.63,0l0,-115.259l0,-115.26l-53.196,0l-53.196,0l0,155.156c0,84.228 0,159.59 0,159.59s39.897,4.433 115.259,0l110.826,0l0,-39.897l-4.433,-44.33z"/>
   <path id="svg_26" d="m1299.483,441.417c-31.032,-48.764 -70.929,-106.395 -66.496,-110.827c0,0 8.867,-4.433 13.3,-8.865c26.598,-13.3 44.33,-48.764 44.33,-88.661c0,-44.331 -31.031,-84.229 -75.362,-93.094c-13.299,-4.434 -190.62,-4.434 -195.054,0c0,0 0,70.929 -4.433,159.589l0,159.591l53.196,0l53.196,0l0,-53.198c0,-44.33 0,-48.763 4.433,-44.33c0,4.434 17.732,26.599 31.032,53.197l26.598,44.331l57.631,0c31.03,0 57.629,0 57.629,0s4.433,-13.3 0,-17.733zm-132.992,-155.157c-4.433,4.433 -17.731,4.433 -26.598,4.433l-17.732,0l0,-35.464l0,-35.465l17.732,0c17.732,0 26.598,4.433 35.464,13.3c13.3,17.732 8.867,44.33 -8.866,53.196z"/>
   <polygon id="svg_27" points="2669.2939453125,756.1619873046875 2669.2939453125,716.2659912109375 2611.6640625,716.2659912109375 2554.034912109375,711.83203125 2554.034912109375,698.532958984375 2554.034912109375,680.801025390625 2598.364990234375,680.801025390625 2647.12890625,680.801025390625 2647.12890625,640.9029541015625 2647.12890625,596.572021484375 2598.364990234375,596.572021484375 2554.034912109375,596.572021484375 2554.034912109375,578.8409423828125 2554.034912109375,565.5419921875 2611.6640625,561.1080322265625 2669.2939453125,561.1080322265625 2669.2939453125,521.2110595703125 2669.2939453125,476.8809814453125 2558.468017578125,476.8809814453125 2443.208984375,476.8809814453125 2443.208984375,636.469970703125 2443.208984375,796.06005859375 2558.468017578125,796.06005859375 2669.2939453125,796.06005859375 "/>
   <path id="svg_28" d="m2181.659,450.282c0,0 -26.599,-39.896 -53.196,-79.795c-26.6,-39.897 -48.764,-75.361 -48.764,-75.361s22.164,-35.465 48.764,-75.362c26.598,-39.896 48.764,-75.361 53.196,-79.794c0,0 0,-4.434 -4.433,-4.434c-4.434,0 -31.032,0 -57.631,0l-53.195,0l-31.031,53.196l-31.032,48.764l0,-48.764l0,-48.763l-53.196,0c-53.196,0 -53.196,0 -53.196,8.865c0,4.433 0,75.361 0,159.59l0,0l0,150.725l53.196,0l53.196,0l0,-53.198l0,-53.196l8.866,8.866c4.434,4.434 17.732,31.032 31.031,53.197l26.599,39.896l53.196,0c48.764,0.001 62.063,0.001 57.63,-4.432z"/>
   <path id="svg_29" d="m834.014,82.339c-97.526,-35.464 -252.684,-53.196 -390.108,-44.33c-31.031,0 -70.929,4.434 -79.794,4.434c-13.3,0 -31.032,4.433 -44.331,4.433c-48.763,4.434 -48.763,4.434 -44.33,13.299c0,0 4.433,4.434 8.865,0c4.434,0 4.434,0 4.434,0c-8.866,4.434 -8.866,8.867 0,31.032c4.434,22.165 4.434,22.165 8.866,22.165l8.866,0l-8.866,4.433c-4.433,4.434 -8.866,4.434 -8.866,17.732c0,26.599 -8.866,62.063 -26.599,84.228c-4.433,13.3 -8.865,17.732 -4.433,17.732c8.866,4.433 13.3,4.433 22.165,-4.433l8.866,-8.867l13.299,4.435c8.867,4.433 22.166,8.865 26.599,13.298c13.3,4.434 22.165,8.867 35.465,8.867c13.299,0 22.165,0 26.598,4.433c4.434,4.433 17.732,8.866 31.031,13.299l17.732,4.434l17.732,-8.866c8.865,-4.434 17.731,-8.866 17.731,-13.299c0,-4.434 -8.866,-4.434 -26.598,-8.867l-26.599,-8.865l13.3,0c22.165,0 84.227,8.865 101.959,13.299c26.599,8.866 35.465,8.866 35.465,8.866s-4.434,-4.433 -8.866,-4.433c-4.433,-4.434 -8.866,-4.434 -4.433,-8.867c0,-4.433 4.433,-4.433 13.299,-4.433c4.434,0 17.731,4.433 26.599,8.866c8.865,8.866 13.299,8.866 13.299,13.299c0,4.434 0,8.866 4.434,8.866c8.865,4.434 26.598,26.599 26.598,31.031c0,0 8.866,8.866 13.299,17.732c13.3,13.299 13.3,17.731 13.3,22.165s0,8.866 4.433,8.866c22.165,4.433 31.031,8.866 35.465,13.299c4.433,4.434 4.433,4.434 -4.434,8.866c-13.299,4.434 -39.896,22.166 -39.896,26.599s13.298,4.433 26.598,-4.433c31.031,-13.3 75.361,-8.867 119.692,17.731c31.03,17.732 57.63,48.765 66.495,79.795l0,0c4.434,8.866 4.434,4.433 17.732,-26.598c26.599,-62.063 44.33,-137.425 48.764,-199.487c4.433,-35.464 4.433,-110.827 0,-119.692c-0.001,-13.3 -57.631,-44.332 -110.827,-62.064z"/>
   <polygon id="svg_30" points="2199.39208984375,139.969970703125 2199.39208984375,299.5589599609375 2199.39208984375,454.7149658203125 2310.218017578125,454.7149658203125 2421.04296875,454.7149658203125 2421.04296875,414.8179931640625 2421.04296875,370.487060546875 2363.4140625,370.487060546875 2305.783935546875,370.487060546875 2305.783935546875,352.7550048828125 2305.783935546875,335.02197265625 2350.114013671875,335.02197265625 2398.8779296875,335.02197265625 2398.8779296875,295.1259765625 2398.8779296875,255.22900390625 2350.114013671875,255.22900390625 2305.783935546875,255.22900390625 2301.35205078125,237.4959716796875 2301.35205078125,219.7640380859375 2363.4140625,219.7640380859375 2421.04296875,219.7640380859375 2421.04296875,179.866943359375 2421.04296875,139.969970703125 2310.218017578125,139.969970703125 "/>
   <path id="svg_31" d="m2421.043,476.881l-53.196,0l-53.196,0l0,97.527c0,70.929 -4.433,97.526 -4.433,101.96c-13.3,22.165 -44.331,22.165 -57.63,0c-4.434,-4.434 -4.434,-35.465 -4.434,-101.96l0,-97.527l-53.197,0l-53.195,0l0,110.826l0,110.826l8.866,22.165c17.732,39.897 48.764,66.496 84.228,75.361c22.165,8.867 62.063,8.867 88.661,0c48.763,-13.298 84.228,-57.629 97.526,-106.393c4.434,-13.299 4.434,-48.764 4.434,-115.259l-4.434,-97.526z"/>
   <path id="svg_32" d="m448.339,374.921l-8.866,-8.866l-4.433,8.866c-4.434,4.433 -4.434,13.299 -4.434,13.299c0,4.434 4.434,4.434 13.299,4.434c13.3,0 13.3,0 13.3,-4.434s-4.433,-8.866 -8.866,-13.299z"/>
   <path id="svg_33" d="m315.348,241.929c-26.599,-8.865 -26.599,-8.865 -26.599,-4.433c-4.434,4.433 -4.434,4.433 13.299,8.866c22.166,4.434 26.599,4.434 26.599,4.434c4.432,-4.434 -4.433,-4.434 -13.299,-8.867z"/>
   <path id="svg_34" d="m439.473,286.26c-8.866,-4.433 -17.732,-4.433 -22.165,-4.433c-8.866,0 -8.866,8.865 -4.434,8.865c4.434,0 4.434,0 4.434,4.434c0,0 4.433,4.433 13.299,4.433s17.732,0 22.166,0c8.865,0 4.432,-4.433 -13.3,-13.299z"/>
   <path id="svg_35" d="m395.143,397.086c-4.434,-4.433 -4.434,-4.433 -8.866,0c0,4.433 -4.434,13.299 -4.434,17.732c0,8.865 0,13.299 4.434,13.299c4.433,0 17.731,-17.732 17.731,-22.166c-4.433,-4.432 -4.433,-8.865 -8.865,-8.865z"/>
   <path id="svg_36" d="m404.008,370.487c-4.433,4.434 -4.433,4.434 0,8.866c4.434,4.433 8.866,4.433 8.866,4.433c4.434,0 17.732,-17.731 17.732,-22.165c0,-4.433 -22.165,4.434 -26.598,8.866z"/>
   <path id="svg_37" d="m714.321,397.086c-17.732,0 -22.165,4.433 -13.299,8.865c13.299,8.867 17.732,35.466 8.866,57.631c0,4.433 -4.434,13.299 -4.434,13.299s8.866,4.434 17.732,8.866c13.3,4.433 26.598,8.865 62.063,8.865c26.599,4.434 48.764,4.434 53.196,8.866c4.433,4.434 8.866,4.434 8.866,4.434c4.434,0 0,-8.866 -4.434,-31.031c-22.162,-39.898 -84.225,-84.228 -128.556,-79.795z"/>
   <path id="svg_38" d="m435.04,436.983c4.433,0 13.299,-13.3 17.732,-22.165l4.433,-8.867l-17.732,0c-17.732,0 -17.732,4.435 -13.3,22.166c4.433,4.433 8.867,8.866 8.867,8.866z"/>
   <path id="svg_39" d="m798.549,538.943c-31.031,0 -66.495,-13.3 -88.66,-35.465c-8.866,-8.866 -13.3,-8.866 -13.3,-4.433c-17.732,31.031 -75.361,17.732 -84.228,-22.165c-4.434,-13.299 -4.434,-13.299 -17.731,-17.731c-8.867,-4.435 -26.599,-13.3 -39.898,-17.732c-26.598,-17.733 -31.03,-17.733 -44.33,-17.733c-8.866,0 -17.732,0 -26.599,-4.433l-13.299,-8.866l-8.866,17.732c-13.299,26.598 -48.764,44.33 -66.495,39.897c-22.166,-4.433 -44.331,-22.165 -53.196,-39.897c-8.867,-13.299 -8.867,-17.732 -8.867,-35.464l0,-22.166l-8.865,-4.433c-8.866,-4.434 -13.3,-4.434 -26.599,0c-8.866,4.433 -17.732,8.866 -22.165,8.866c-8.866,0 -35.465,-13.3 -44.331,-22.166c-13.299,-13.299 -13.299,-22.165 -13.299,-53.196c0,-13.299 0,-26.598 -4.434,-26.598c0,0 -8.865,0 -22.165,4.433c-35.464,17.732 -88.66,13.299 -124.125,-4.433c-8.866,-4.434 -17.732,-8.866 -17.732,-8.866s8.866,66.495 17.732,106.393c13.3,48.764 22.165,66.496 39.897,84.228c31.031,26.6 66.496,39.897 164.023,57.63c146.29,26.599 301.446,119.692 367.942,217.22c13.299,22.165 26.599,53.197 26.599,66.495l0,0c0,4.434 0,8.866 4.433,8.866s79.794,-79.795 101.96,-110.825c35.464,-44.331 66.495,-97.527 70.928,-115.26c4.434,-13.299 4.434,-13.299 0,-26.598c-8.865,-8.867 -26.598,-13.3 -44.33,-13.3z"/>
   <path id="svg_40" d="m550.299,676.368c-97.526,-62.063 -234.951,-106.394 -336.912,-106.394c-35.464,0 -39.896,0 -44.33,4.434c-4.433,4.433 -4.433,8.866 -4.433,13.299s8.866,22.165 22.165,44.33c57.63,93.094 132.991,172.889 212.786,226.086c8.866,8.865 35.465,22.165 57.63,35.464s39.897,22.165 44.33,22.165c8.866,0 75.362,-35.464 106.393,-57.629c31.032,-22.165 35.465,-26.599 39.898,-53.197c0,-17.731 0,-22.165 -8.866,-39.896c-13.3,-26.599 -53.197,-62.064 -88.661,-88.662z"/>
   <path id="svg_41" d="m235.553,237.496c0,0 -4.434,8.866 -8.866,13.3c-4.434,8.865 -4.434,17.731 -4.434,35.464c4.434,31.031 8.866,31.031 13.3,0c0,-17.732 0,-22.165 -4.434,-26.599c-4.433,0 -4.433,0 0,-13.299c4.434,-8.866 8.866,-13.299 4.434,-8.866z"/>
   <path id="svg_42" d="m106.994,241.929l0,0c22.165,4.434 35.464,4.434 57.63,0c44.33,-13.298 75.361,-44.33 84.228,-88.661c13.299,-75.361 -57.629,-141.857 -132.991,-124.125l-4.433,0c-17.732,4.434 -31.031,8.866 -44.331,22.166l0,0l-13.299,13.299c-4.434,8.866 -13.299,17.731 -17.732,26.599c-31.032,57.628 4.433,132.989 70.928,150.722z"/>
  </g>
 </g>
</svg>
